# xmcd
#
# Track frame offsets:
#	150
#	27245
#	49070
#	76532
#	103862
#
# Disc length: 1750 seconds
#
# Revision: 1
# Processed by: cddbd v1.5PL3 Copyright (c) Steve Scherf et al.
# Submitted via: CDex 1.50Beta5
#
DISCID=3006d405
DTITLE=桃井はるこ - Mail Me
DYEAR=1900
DGENRE=
TTITLE0=Mail Me
TTITLE1=2001年のゲーム・キッス
TTITLE2=DIGITAL ESPER
TTITLE3=Mail Me (vocalless version)
TTITLE4=Mail Me (trackless version)
EXTD="アキバ系" 桃井はるこの自作詞作曲 1st シングル。
EXTT0=
EXTT1=
EXTT2=
EXTT3=
EXTT4=
PLAYORDER=
